<?xml version="1.0" encoding="utf-8"?>
<!-- Generator: Adobe Illustrator 19.0.0, SVG Export Plug-In . SVG Version: 6.00 Build 0)  -->
<svg version="1.1" id="Layer_1" xmlns="http://www.w3.org/2000/svg" xmlns:xlink="http://www.w3.org/1999/xlink" x="0px" y="0px"
	 viewBox="0 0 43 41" style="enable-background:new 0 0 43 41;" xml:space="preserve">
<style type="text/css">
	.st0{fill:#F25268;stroke:#F25268;stroke-width:2;stroke-miterlimit:10;}
</style>
<path id="XMLID_426_" class="st0" d="M41.8,12.7c0-1-0.1-1.8-0.4-2.8c0,0,0,0,0,0c0,0,0,0,0,0l0,0c-1.2-5-5.4-8.5-10-8.5
	c-2.1,0-4.8,0.7-6.1,2l0,0c0,0-1.1,0.9-4.1,5c-1.1-1.5-1.8-2.6-2.5-3.4c-0.2-0.2-0.3-0.4-0.5-0.6c-1.8-1.9-4.2-2.9-6.9-2.9
	C6.7,1.4,2.8,5,1.6,9.9l0,0c0,0,0,0,0,0c0,0,0,0,0,0c-0.3,1-0.4,1.8-0.4,2.8c0,0.1,0,0.1,0,0.2c0,1.4,0.2,2.8,0.6,4.1
	c3.4,11.7,19.6,22.5,19.6,22.5s16.3-10.8,19.7-22.5c0.4-1.3,0.7-2.6,0.7-4.1C41.8,12.8,41.8,12.7,41.8,12.7z"/>
</svg>
